<?xml version="1.0" standalone="no"?>
<!DOCTYPE svg PUBLIC "-//W3C//DTD SVG 20010904//EN"
 "http://www.w3.org/TR/2001/REC-SVG-20010904/DTD/svg10.dtd">
<svg version="1.0" xmlns="http://www.w3.org/2000/svg"
 width="5000.000000pt" height="5000.000000pt" viewBox="0 0 5000.000000 5000.000000"
 preserveAspectRatio="xMidYMid meet">
<g transform="translate(0.000000,5000.000000) scale(0.100000,-0.100000)"
fill="#fff" stroke="none">
<path d="M22040 43144 c-395 -36 -716 -100 -1045 -209 -1233 -410 -2207 -1358
-2650 -2579 -366 -1011 -334 -2134 87 -3106 23 -52 450 -938 949 -1969 l908
-1873 -4993 -10302 c-3272 -6748 -5016 -10358 -5059 -10466 -141 -358 -224
-687 -274 -1090 -22 -180 -25 -704 -5 -875 99 -856 403 -1600 918 -2245 138
-173 470 -506 644 -644 141 -112 414 -298 559 -381 496 -281 1037 -458 1631
-532 139 -17 590 -18 11280 -18 9185 0 11156 2 11255 13 597 66 1168 249 1676
537 145 83 418 269 559 381 173 138 505 470 644 644 115 143 299 414 385 566
283 502 462 1065 533 1679 20 171 17 695 -5 875 -50 403 -133 732 -274 1090
-43 108 -1791 3725 -5059 10466 l-4993 10302 907 1873 c500 1031 927 1917 950
1969 258 596 380 1307 332 1950 -112 1510 -989 2828 -2329 3499 -448 225 -909
363 -1431 428 -223 28 -756 25 -976 -5 -275 -37 -512 -88 -742 -159 l-82 -25
-143 41 c-192 55 -329 87 -505 115 -261 43 -372 51 -692 51 -320 0 -431 -8
-692 -51 -176 -28 -313 -60 -505 -115 l-143 -41 -82 25 c-227 70 -467 122
-731 158 -118 16 -220 21 -457 24 -168 1 -325 1 -350 -1z m703 -1673 c304 -54
593 -154 826 -284 l94 -53 96 53 c216 119 475 214 719 263 199 39 309 50 522
50 213 0 323 -11 522 -50 244 -49 503 -144 719 -263 l96 -53 94 53 c239 133
547 238 856 290 154 26 598 26 761 0 272 -43 523 -122 767 -242 769 -377 1290
-1096 1421 -1960 23 -151 26 -552 6 -690 -37 -242 -101 -475 -186 -677 -24
-57 -523 -1092 -1110 -2302 l-1066 -2198 5137 -10597 c2825 -5828 5151 -10628
5168 -10666 85 -186 166 -462 200 -680 22 -141 31 -472 16 -620 -111 -1104
-884 -2004 -1951 -2269 -80 -20 -188 -44 -240 -53 -89 -16 -818 -17 -11140
-21 -8117 -2 -11074 0 -11155 8 -1229 126 -2192 1096 -2316 2334 -15 148 -6
482 15 621 35 220 116 494 201 680 17 38 2343 4838 5168 10666 l5137 10597
-1066 2198 c-587 1210 -1086 2245 -1110 2302 -85 202 -149 435 -186 677 -20
138 -17 539 6 690 47 312 161 649 307 908 404 716 1111 1191 1942 1302 159 22
578 14 730 -14z"/>
<path d="M22219 39870 c-322 -40 -606 -242 -750 -535 -77 -158 -93 -229 -93
-425 0 -151 3 -173 28 -255 19 -64 388 -834 1277 -2669 l1249 -2578 -5286
-10907 c-2908 -5998 -5307 -10946 -5330 -10996 -72 -153 -89 -233 -88 -425 0
-150 3 -173 27 -253 104 -339 353 -581 696 -675 l96 -27 3510 0 c2901 0 3518
2 3556 13 61 18 137 77 171 132 22 36 196 709 868 3355 463 1821 868 3414 900
3540 66 261 126 421 221 586 557 973 1807 1295 2768 713 389 -236 701 -626
845 -1058 14 -44 51 -179 82 -300 30 -122 431 -1699 890 -3506 666 -2621 841
-3294 862 -3330 34 -55 110 -114 171 -132 38 -11 655 -13 3556 -13 l3510 0 96
27 c343 94 592 336 696 675 24 80 27 103 27 253 1 179 -9 239 -64 370 -15 36
-2415 4991 -5334 11011 l-5306 10947 1249 2578 c889 1835 1258 2605 1277 2669
25 82 28 104 28 255 0 196 -16 266 -93 425 -125 253 -354 440 -628 511 -133
35 -316 37 -446 6 -245 -60 -463 -211 -589 -407 -25 -38 -239 -470 -476 -959
l-431 -889 -3 744 c-4 742 -4 744 -26 819 -68 221 -184 392 -352 519 -347 261
-813 261 -1160 0 -168 -127 -284 -298 -352 -519 -22 -75 -22 -77 -26 -819 l-3
-744 -431 889 c-237 489 -451 921 -476 959 -54 85 -174 206 -261 265 -184 124
-439 187 -652 160z"/>
</g>
</svg>
