<?xml version="1.0" standalone="no"?>
<!DOCTYPE svg PUBLIC "-//W3C//DTD SVG 20010904//EN"
 "http://www.w3.org/TR/2001/REC-SVG-20010904/DTD/svg10.dtd">
<svg version="1.0" xmlns="http://www.w3.org/2000/svg"
 width="5000.000000pt" height="5000.000000pt" viewBox="0 0 5000.000000 5000.000000"
 preserveAspectRatio="xMidYMid meet">
<g transform="translate(0.000000,5000.000000) scale(0.100000,-0.100000)"
fill="#fff" stroke="none">
<path d="M33370 39939 c-1232 -108 -2347 -635 -3193 -1509 -765 -790 -1245
-1791 -1377 -2870 l-23 -185 -219 -43 c-1083 -214 -2125 -709 -3003 -1429
-384 -315 -814 -753 -1119 -1141 -80 -102 -91 -112 -115 -108 -51 11 -259 35
-441 52 -131 13 -287 18 -535 18 -369 1 -549 -10 -860 -49 -99 -13 -180 -22
-180 -21 -1 0 -53 66 -116 146 -325 407 -728 812 -1130 1136 -973 784 -2117
1287 -3319 1458 -357 51 -497 60 -935 61 -591 0 -955 -38 -1480 -156 -3006
-677 -5285 -3389 -5615 -6684 -54 -539 -55 -1105 -5 -1670 71 -794 258 -1671
528 -2485 41 -124 78 -232 81 -240 5 -11 -13 -30 -61 -65 -408 -299 -888 -755
-1228 -1165 -636 -768 -1076 -1703 -1235 -2625 -71 -414 -84 -671 -77 -1495
10 -997 38 -1445 123 -1960 243 -1478 994 -2611 2179 -3291 577 -330 1288
-559 2110 -678 602 -88 1618 -150 2440 -151 l220 0 52 -103 c443 -871 1127
-1535 2028 -1968 816 -392 1765 -575 3315 -639 584 -24 1190 -30 3140 -30
2341 0 2884 8 3635 55 1530 96 2482 350 3334 890 276 175 524 378 776 636 304
312 530 626 735 1022 l72 137 221 0 c734 0 1635 51 2247 125 1281 157 2262
551 3010 1211 122 108 338 325 435 438 235 275 471 646 629 993 325 711 473
1444 516 2553 16 415 13 1593 -5 1793 -141 1604 -998 3078 -2429 4180 -65 51
-128 99 -138 107 -19 15 -17 22 56 241 470 1408 659 2846 540 4109 -40 435
-112 855 -214 1259 -16 66 -30 122 -30 124 0 3 208 7 463 10 473 5 589 13 874
56 1620 249 3037 1301 3748 2786 486 1014 617 2150 374 3257 -159 725 -503
1444 -973 2032 -774 968 -1876 1619 -3081 1820 -387 65 -210 60 -2535 62
-1163 1 -2158 -2 -2210 -7z m4290 -1517 c384 -54 681 -132 970 -254 281 -119
606 -313 845 -504 149 -119 409 -381 531 -534 402 -505 648 -1083 741 -1740
25 -180 25 -712 0 -890 -84 -594 -292 -1126 -616 -1579 -568 -792 -1402 -1302
-2358 -1441 -242 -35 -483 -40 -1960 -40 l-1433 0 64 -97 c177 -271 397 -694
529 -1013 249 -603 402 -1224 473 -1920 21 -208 30 -853 15 -1088 -77 -1187
-406 -2421 -965 -3615 -25 -54 -46 -102 -46 -107 0 -4 55 -37 123 -73 294
-155 665 -389 922 -582 424 -319 824 -715 1110 -1100 480 -646 756 -1361 815
-2114 21 -273 8 -1471 -20 -1896 -51 -760 -173 -1278 -414 -1752 -463 -914
-1311 -1441 -2633 -1637 -645 -96 -1284 -130 -2712 -146 -902 -10 -880 -9
-881 -51 0 -31 -71 -302 -111 -426 -338 -1048 -1093 -1714 -2269 -2002 -560
-137 -1208 -204 -2360 -242 -479 -16 -3980 -23 -4773 -10 -1489 25 -2208 82
-2862 227 -357 80 -612 167 -900 309 -280 138 -469 263 -677 449 -440 391
-758 967 -898 1626 -12 58 -24 106 -25 108 -1 1 -391 7 -866 12 -1313 15
-1874 41 -2489 116 -955 116 -1624 359 -2150 780 -107 86 -306 284 -390 389
-220 271 -421 656 -528 1010 -184 602 -239 1218 -229 2565 4 681 6 716 57 985
258 1358 1237 2549 2770 3370 80 42 146 79 148 80 2 2 -29 72 -68 157 -516
1101 -846 2311 -935 3432 -102 1274 133 2507 686 3596 1369 2702 4326 3865
6962 2739 1096 -469 2073 -1359 2692 -2454 38 -66 71 -124 75 -128 4 -4 74 13
156 38 335 104 630 166 1009 211 179 22 699 30 907 15 414 -31 809 -106 1190
-227 82 -26 149 -46 151 -43 2 2 41 69 86 149 1115 1945 3139 3043 5243 2844
l66 -7 -24 84 c-33 113 -78 335 -101 494 -26 184 -26 712 0 895 110 776 432
1442 962 1989 283 291 581 509 955 695 400 199 824 318 1265 354 173 15 4070
8 4175 -6z"/>
<path d="M33318 37109 c-163 -38 -317 -201 -348 -368 -15 -79 -14 -3533 1
-3603 18 -83 56 -154 121 -224 69 -73 166 -127 259 -144 36 -7 381 -10 970 -8
881 3 916 4 969 23 126 45 241 156 292 282 l23 58 3 935 c2 614 -1 952 -8 983
-35 166 -185 318 -351 356 -27 7 -293 11 -696 11 l-653 0 0 385 0 384 668 3
c654 3 668 4 724 25 230 87 361 321 307 552 -35 155 -166 294 -320 342 -58 18
-105 19 -992 18 -513 -1 -949 -5 -969 -10z m1352 -3024 l0 -385 -385 0 -385 0
0 385 0 385 385 0 385 0 0 -385z"/>
<path d="M37430 36169 c-85 -15 -174 -61 -244 -129 -126 -121 -146 -189 -146
-497 l0 -223 -223 0 c-168 0 -237 -4 -282 -15 -226 -59 -383 -299 -345 -526
32 -189 184 -349 368 -388 29 -6 148 -11 267 -11 l215 0 0 -223 c0 -244 9
-304 57 -387 47 -79 130 -157 211 -197 66 -33 85 -38 169 -41 70 -3 112 0 159
13 164 44 302 195 334 364 5 30 10 148 10 262 l0 209 218 0 c161 0 233 4 275
15 216 56 357 236 357 455 0 217 -142 399 -355 456 -35 10 -119 14 -272 14
l-223 0 0 218 c0 242 -8 293 -62 394 -36 68 -128 157 -197 192 -85 44 -196 61
-291 45z"/>
<path d="M16475 32439 c-991 -93 -1897 -570 -2596 -1367 -625 -712 -1033
-1638 -1159 -2627 -34 -270 -43 -460 -37 -789 6 -321 19 -488 63 -800 188
-1339 788 -2815 1557 -3827 67 -89 128 -169 135 -179 12 -16 9 -18 -25 -25
-69 -13 -405 -113 -598 -178 -1631 -554 -2757 -1542 -3029 -2658 -59 -245 -61
-274 -60 -1004 1 -831 18 -1179 75 -1555 140 -917 570 -1311 1628 -1489 561
-95 1250 -133 2618 -147 l671 -7 5 629 c4 674 9 739 67 1034 258 1305 1178
2456 2615 3273 83 46 180 100 218 118 37 18 67 36 67 39 0 4 -34 79 -75 168
-457 987 -775 2100 -889 3112 -87 771 -60 1512 79 2208 316 1575 1144 2915
2368 3831 53 41 97 76 97 80 0 4 -40 73 -90 154 -194 320 -392 570 -669 848
-215 214 -391 363 -596 502 -568 385 -1152 596 -1820 657 -129 12 -490 11
-620 -1z"/>
<path d="M29590 32444 c-598 -52 -1142 -227 -1645 -531 -593 -357 -1100 -869
-1478 -1493 -41 -69 -77 -130 -79 -136 -2 -6 51 -51 117 -101 534 -399 1010
-905 1393 -1482 526 -793 881 -1736 1016 -2706 51 -365 60 -511 61 -955 0
-420 -5 -520 -46 -885 -74 -672 -257 -1455 -501 -2149 -121 -347 -325 -842
-436 -1063 l-31 -61 152 -83 c1115 -605 1939 -1403 2400 -2324 158 -316 282
-673 347 -994 68 -335 85 -605 77 -1223 l-6 -468 332 0 c659 0 1564 23 2017
50 1795 109 2379 459 2565 1535 62 358 76 611 82 1485 4 660 3 771 -11 880
-115 876 -740 1690 -1783 2318 -482 291 -1148 568 -1758 733 -88 23 -162 44
-163 45 -2 1 39 58 92 126 551 709 1031 1669 1330 2661 265 877 382 1745 336
2472 -99 1553 -857 2935 -2040 3722 -494 328 -1020 526 -1620 609 -110 15
-610 27 -720 18z"/>
<path d="M23040 29720 c-1185 -103 -2234 -742 -2972 -1810 -241 -348 -470
-819 -611 -1255 -226 -697 -302 -1465 -221 -2245 151 -1461 778 -3068 1631
-4178 61 -79 98 -134 90 -137 -6 -2 -82 -22 -167 -45 -200 -54 -550 -170 -760
-253 -1273 -501 -2189 -1260 -2578 -2138 -97 -217 -156 -426 -187 -662 -28
-219 -18 -1480 15 -1907 74 -932 303 -1378 846 -1648 416 -207 1027 -313 2084
-362 583 -27 1182 -33 3120 -33 1943 0 2543 6 3125 33 1371 64 2030 227 2419
600 304 291 442 677 501 1404 39 487 46 1750 11 1966 -94 568 -369 1073 -846
1551 -331 332 -690 594 -1176 857 -412 224 -957 440 -1464 582 -102 28 -191
53 -198 56 -11 3 -11 7 0 21 7 10 68 92 136 182 280 374 500 740 736 1222 450
919 743 1919 846 2889 27 252 37 737 21 975 -91 1297 -628 2470 -1504 3284
-629 584 -1379 939 -2187 1036 -160 19 -562 27 -710 15z m-3090 -13351 l0
-2080 -82 6 c-592 47 -921 100 -1146 187 -46 17 -96 43 -112 58 -36 34 -71
145 -99 310 -46 280 -60 549 -67 1300 -7 682 -4 726 55 911 153 478 639 961
1353 1344 45 25 86 45 91 45 4 0 7 -936 7 -2081z m6929 1995 c701 -390 1160
-874 1298 -1370 l28 -99 0 -730 c-1 -487 -5 -785 -13 -895 -31 -409 -83 -671
-145 -727 -86 -80 -403 -159 -822 -207 -110 -13 -476 -46 -506 -46 -5 0 -9
789 -9 2081 0 1945 1 2081 17 2075 9 -4 78 -41 152 -82z m-5394 -291 c352
-212 747 -370 1138 -457 l27 -6 0 -1685 0 -1685 -563 0 c-310 0 -612 3 -670 7
l-107 6 0 1965 0 1964 33 -21 c17 -12 82 -52 142 -88z m3859 -3822 c-3 -3
-305 -8 -670 -9 l-664 -4 0 1686 0 1685 38 10 c20 6 42 11 49 11 7 0 83 21
170 46 305 88 658 246 949 423 l129 79 3 -1960 c1 -1079 -1 -1964 -4 -1967z"/>
</g>
</svg>
