<?xml version="1.0" standalone="no"?>
<!DOCTYPE svg PUBLIC "-//W3C//DTD SVG 20010904//EN"
 "http://www.w3.org/TR/2001/REC-SVG-20010904/DTD/svg10.dtd">
<svg version="1.0" xmlns="http://www.w3.org/2000/svg"
 width="5000.000000pt" height="5000.000000pt" viewBox="0 0 5000.000000 5000.000000"
 preserveAspectRatio="xMidYMid meet">
<g transform="translate(0.000000,5000.000000) scale(0.100000,-0.100000)"
fill="#fff" stroke="none">
<path d="M19590 35029 c-1983 -91 -3786 -1319 -4719 -3214 -754 -1531 -860
-3249 -316 -5130 35 -121 88 -292 118 -380 l54 -161 -41 -29 c-195 -140 -489
-399 -692 -608 -671 -691 -1098 -1496 -1258 -2367 -59 -319 -61 -366 -61
-1125 1 -697 7 -899 41 -1240 60 -606 195 -1107 420 -1556 176 -353 353 -598
634 -879 434 -434 927 -720 1578 -916 611 -183 1339 -266 2562 -290 l346 -7
59 -115 c166 -319 353 -572 619 -837 292 -291 573 -489 959 -675 652 -315
1367 -452 2647 -510 113 -5 712 -15 1332 -21 877 -10 1379 -10 2255 0 1082 11
1327 17 1713 41 1383 85 2206 339 2940 906 136 105 425 390 532 524 143 180
308 438 398 621 l33 66 346 7 c1663 33 2502 180 3271 572 983 502 1618 1375
1849 2544 90 455 115 841 116 1765 0 759 -2 806 -61 1125 -160 871 -587 1676
-1258 2367 -203 209 -497 468 -692 608 l-41 29 54 161 c382 1134 533 2305 427
3325 -189 1823 -1112 3434 -2542 4437 -1676 1175 -3859 1287 -5641 291 -623
-348 -1189 -828 -1649 -1397 l-116 -143 -56 6 c-30 4 -109 14 -175 21 -239 29
-557 39 -807 26 -206 -11 -284 -18 -518 -46 l-56 -7 -116 143 c-1017 1258
-2448 1996 -4013 2069 -229 10 -234 10 -475 -1z m485 -1199 c958 -60 1831
-431 2570 -1089 356 -318 703 -749 945 -1176 35 -60 64 -111 65 -112 1 -2 48
13 106 32 222 76 551 144 849 177 149 16 631 16 780 0 298 -33 627 -101 849
-177 58 -19 105 -34 106 -32 1 1 30 52 65 112 447 787 1129 1443 1901 1831
1151 577 2470 588 3631 31 881 -423 1634 -1180 2101 -2112 485 -970 647 -2056
481 -3237 -100 -716 -351 -1560 -661 -2223 -41 -88 -77 -168 -80 -177 -4 -13
12 -25 66 -52 120 -61 329 -184 481 -283 1064 -697 1693 -1637 1791 -2676 14
-153 6 -1346 -10 -1562 -26 -330 -61 -569 -116 -793 -258 -1045 -956 -1642
-2167 -1851 -512 -89 -1103 -123 -2344 -137 l-611 -7 -11 -61 c-37 -197 -120
-443 -222 -651 -324 -663 -913 -1082 -1776 -1264 -424 -90 -898 -134 -1724
-163 -491 -17 -3789 -17 -4280 0 -824 28 -1300 73 -1721 162 -867 183 -1454
601 -1779 1265 -102 208 -185 454 -222 651 l-11 61 -611 7 c-1403 15 -2024 60
-2576 183 -1062 237 -1703 838 -1938 1818 -55 225 -88 456 -113 780 -16 217
-24 1409 -10 1562 98 1039 727 1979 1791 2676 152 99 361 222 481 283 54 27
70 39 66 52 -3 9 -39 89 -80 177 -207 443 -421 1066 -536 1560 -132 569 -185
998 -185 1525 -1 355 8 494 50 789 201 1409 960 2656 2069 3398 762 510 1659
758 2540 703z"/>
<path d="M19595 32649 c-592 -55 -1162 -287 -1648 -671 -131 -104 -431 -404
-535 -535 -524 -663 -810 -1440 -851 -2310 -60 -1262 473 -2889 1303 -3978 42
-55 73 -101 69 -102 -5 -1 -91 -27 -193 -57 -865 -255 -1561 -648 -2066 -1168
-214 -221 -349 -408 -464 -643 -83 -168 -131 -305 -168 -474 l-27 -126 0 -645
c0 -647 7 -818 41 -1085 22 -175 50 -305 94 -436 67 -202 148 -338 275 -458
398 -377 1086 -490 3075 -503 458 -3 465 -3 469 17 2 11 8 23 14 27 7 4 11
163 12 485 1 304 6 511 13 568 61 454 182 825 392 1201 363 648 1016 1249
1828 1680 53 28 90 54 88 61 -3 6 2 14 10 17 17 6 22 -8 -76 206 -317 693
-552 1499 -655 2245 -49 360 -69 873 -46 1200 105 1500 810 2848 1931 3689 58
44 107 81 109 82 7 6 -153 257 -237 372 -125 173 -209 271 -371 432 -496 495
-1076 792 -1736 890 -163 24 -494 34 -650 19z"/>
<path d="M29955 32654 c-619 -51 -1190 -283 -1685 -684 -210 -171 -411 -380
-582 -608 -110 -146 -278 -408 -277 -432 0 -8 51 -52 112 -97 312 -229 662
-582 921 -928 523 -698 862 -1546 975 -2445 59 -461 53 -1001 -14 -1495 -98
-715 -304 -1439 -610 -2145 -37 -85 -80 -181 -96 -212 -16 -32 -31 -73 -34
-92 l-4 -35 107 -56 c1118 -591 1903 -1502 2150 -2495 78 -311 95 -510 90
-1067 -2 -221 -1 -403 2 -406 8 -8 1316 11 1570 23 1822 81 2255 366 2360
1550 28 319 41 1326 20 1515 -44 384 -215 773 -488 1115 -108 135 -324 348
-482 474 -463 370 -1076 674 -1746 866 -98 29 -185 53 -191 55 -8 3 26 56 83
132 691 918 1183 2237 1274 3412 13 174 13 505 -1 668 -42 520 -172 1002 -388
1448 -196 403 -424 729 -716 1020 -505 505 -1104 808 -1776 900 -111 15 -474
27 -574 19z"/>
<path d="M24705 30479 c-550 -56 -1097 -278 -1548 -627 -584 -451 -1036 -1125
-1261 -1877 -265 -890 -226 -1853 121 -2975 228 -740 614 -1505 1023 -2028 48
-62 75 -104 67 -107 -6 -2 -64 -18 -127 -35 -1017 -279 -1893 -806 -2360
-1419 -264 -347 -405 -693 -441 -1081 -13 -142 -6 -1013 11 -1290 28 -465 83
-737 195 -965 226 -461 685 -660 1705 -739 541 -42 1238 -56 2900 -56 2277 0
3004 29 3560 140 401 80 639 185 827 364 246 233 349 527 404 1141 6 66 13
408 16 760 6 715 4 749 -61 987 -142 514 -527 1008 -1106 1415 -445 314 -1100
607 -1690 758 -36 9 -68 19 -72 21 -4 3 36 62 89 132 618 819 1092 1978 1242
3042 42 297 46 360 46 725 0 291 -4 387 -18 500 -89 682 -298 1253 -648 1770
-565 836 -1395 1353 -2318 1445 -119 12 -438 11 -556 -1z m-2395 -10565 l0
-1646 -82 6 c-459 37 -776 93 -923 162 -65 31 -83 59 -110 178 -51 221 -68
500 -69 1156 -1 490 1 552 17 614 103 404 458 783 1039 1111 62 35 116 64 121
64 4 1 7 -740 7 -1645z m5652 1483 c248 -154 519 -391 649 -567 115 -155 189
-307 227 -463 15 -64 17 -127 15 -577 -1 -278 -7 -586 -13 -685 -18 -307 -54
-532 -98 -609 -55 -98 -372 -169 -994 -222 l-78 -6 0 1647 0 1647 96 -52 c53
-28 141 -79 196 -113z m-4207 -256 c192 -95 383 -167 563 -213 l132 -33 0
-1332 0 -1333 -530 0 -530 0 0 1559 0 1560 103 -65 c56 -35 174 -100 262 -143z
m2835 -1351 l0 -1560 -530 0 -530 0 0 1333 0 1334 58 13 c273 60 635 211 892
373 58 36 106 66 108 66 1 1 2 -701 2 -1559z"/>
</g>
</svg>
