<?xml version="1.0" standalone="no"?>
<!DOCTYPE svg PUBLIC "-//W3C//DTD SVG 20010904//EN"
 "http://www.w3.org/TR/2001/REC-SVG-20010904/DTD/svg10.dtd">
<svg version="1.0" xmlns="http://www.w3.org/2000/svg"
 width="5000.000000pt" height="5000.000000pt" viewBox="0 0 5000.000000 5000.000000"
 preserveAspectRatio="xMidYMid meet">
<g transform="translate(0.000000,5000.000000) scale(0.100000,-0.100000)"
fill="#fff" stroke="none">
<path d="M20970 37829 c-914 -71 -1727 -294 -2535 -694 -901 -446 -1686 -1071
-2362 -1882 -830 -995 -1414 -2234 -1672 -3547 -68 -342 -103 -601 -138 -996
-21 -246 -24 -981 -5 -1230 75 -975 257 -1870 571 -2805 38 -115 69 -210 68
-210 -10 -5 -239 -183 -302 -234 -541 -443 -989 -927 -1357 -1466 -273 -399
-546 -948 -697 -1402 -160 -480 -245 -938 -272 -1468 -19 -367 0 -1561 31
-2015 91 -1313 422 -2262 1076 -3085 115 -144 467 -496 619 -617 307 -245 612
-435 955 -594 958 -443 2060 -620 4040 -651 l426 -6 68 -134 c212 -414 450
-738 795 -1084 223 -223 390 -362 620 -517 729 -493 1523 -763 2648 -901 535
-66 1143 -102 2078 -122 666 -14 4921 -6 5320 10 1119 44 1725 104 2344 232
1359 280 2415 956 3084 1974 504 768 752 1627 827 2855 31 509 38 1861 11
2120 -35 334 -72 549 -143 835 -312 1258 -1078 2398 -2228 3318 -96 77 -192
151 -212 164 l-37 25 38 106 c21 59 66 195 99 302 486 1550 634 3024 442 4370
-131 918 -382 1723 -787 2530 -302 603 -637 1104 -1081 1620 -169 195 -580
604 -776 770 -810 690 -1715 1173 -2706 1444 -391 108 -775 175 -1235 218
-187 17 -881 17 -1075 0 -136 -12 -431 -47 -475 -56 -16 -3 -40 22 -111 113
-256 325 -657 746 -965 1012 -871 750 -1835 1253 -2914 1519 -314 78 -624 130
-1015 171 -135 14 -909 20 -1060 8z m1015 -1543 c1066 -124 1991 -513 2830
-1190 552 -445 1063 -1050 1425 -1686 46 -80 83 -146 84 -147 1 -1 73 21 161
48 562 174 1107 250 1685 236 263 -7 370 -15 605 -48 869 -119 1737 -481 2470
-1030 1149 -861 1971 -2160 2309 -3650 176 -772 212 -1614 106 -2479 -123
-1007 -441 -2091 -904 -3089 -42 -90 -75 -165 -74 -166 2 -2 37 -20 78 -40
393 -197 888 -525 1255 -831 151 -126 459 -426 583 -567 417 -475 719 -989
903 -1538 81 -241 150 -560 180 -834 35 -324 16 -1692 -32 -2235 -87 -1004
-375 -1715 -909 -2250 -609 -610 -1438 -911 -2820 -1024 -816 -67 -1521 -79
-4260 -73 -2072 5 -2365 8 -2940 37 -1552 78 -2400 301 -3085 814 -145 109
-400 361 -506 501 -270 356 -431 701 -554 1190 l-52 210 -684 7 c-1757 17
-2564 69 -3259 208 -1515 304 -2375 1129 -2655 2543 -87 442 -119 913 -130
1932 -7 702 6 935 76 1280 232 1158 1002 2211 2193 2999 210 139 352 223 679
401 39 21 66 42 63 48 -2 7 -47 104 -99 217 -719 1565 -1045 3260 -901 4680
181 1789 1034 3375 2379 4425 145 113 476 334 645 430 428 242 894 429 1360
544 289 72 555 114 910 145 112 10 762 -3 885 -18z"/>
<path d="M21175 34794 c-305 -31 -513 -69 -743 -134 -833 -235 -1596 -777
-2164 -1535 -385 -514 -667 -1117 -828 -1770 -204 -826 -209 -1656 -15 -2630
258 -1296 848 -2626 1573 -3543 41 -52 72 -95 70 -97 -2 -2 -80 -24 -173 -50
-995 -274 -1886 -726 -2505 -1271 -130 -114 -343 -331 -437 -444 -351 -423
-565 -888 -629 -1370 -17 -128 -20 -1178 -4 -1555 30 -716 102 -1112 260
-1430 306 -617 945 -866 2450 -955 428 -25 1442 -49 2097 -50 l231 0 5 643 c4
588 6 655 25 794 88 621 295 1169 650 1713 492 755 1232 1407 2182 1920 74 40
137 74 139 76 2 1 -27 67 -63 145 -393 837 -693 1796 -845 2705 -191 1140
-147 2193 134 3199 383 1366 1168 2538 2243 3347 l133 100 -32 57 c-215 384
-580 835 -912 1129 -636 563 -1316 878 -2132 988 -105 15 -618 27 -710 18z"/>
<path d="M27780 32014 c-707 -62 -1340 -293 -1915 -698 -347 -245 -708 -596
-974 -950 -467 -621 -786 -1371 -920 -2166 -121 -720 -101 -1431 64 -2255 258
-1287 810 -2540 1538 -3495 79 -103 92 -126 79 -132 -9 -4 -99 -30 -198 -57
-1377 -384 -2506 -1102 -3083 -1961 -261 -389 -404 -779 -442 -1210 -14 -155
-6 -1243 11 -1565 39 -732 133 -1141 336 -1452 69 -107 239 -280 344 -350 428
-285 1061 -416 2295 -472 586 -27 1270 -33 3480 -28 2178 4 2436 8 2980 37
1270 70 1910 243 2285 620 235 235 366 544 439 1030 54 360 74 842 69 1660 -4
580 -5 610 -27 730 -148 801 -691 1525 -1589 2114 -572 376 -1284 684 -2050
886 l-82 22 39 47 c80 96 243 323 353 491 711 1081 1210 2467 1352 3755 51
454 49 903 -4 1341 -244 2005 -1612 3626 -3366 3989 -245 51 -398 66 -694 70
-151 1 -295 1 -320 -1z m-3140 -13450 l0 -2096 -77 7 c-637 52 -963 107 -1179
196 -88 37 -109 58 -139 145 -82 236 -113 674 -117 1639 -1 522 0 588 16 660
68 310 229 580 515 865 149 148 294 264 506 405 149 100 447 274 468 275 4 0
7 -943 7 -2096z m6926 2041 c498 -266 906 -604 1146 -950 123 -176 210 -381
243 -569 27 -157 17 -1324 -16 -1721 -22 -271 -65 -510 -110 -603 -17 -34 -33
-49 -78 -71 -131 -67 -378 -125 -702 -165 -161 -21 -533 -56 -585 -56 -12 0
-14 303 -14 2095 0 1152 3 2095 7 2095 3 0 53 -25 109 -55z m-5391 -315 c162
-97 285 -161 451 -236 169 -75 479 -181 631 -216 l103 -23 0 -1697 0 -1698
-607 0 c-335 0 -638 3 -675 7 l-68 6 0 1980 0 1979 28 -18 c15 -10 77 -48 137
-84z m3899 -3859 c-3 -3 -307 -7 -675 -9 l-669 -3 0 1700 c0 1613 1 1701 18
1701 34 0 259 62 403 110 261 88 556 227 800 378 l124 77 3 -1974 c1 -1086 -1
-1977 -4 -1980z"/>
</g>
</svg>
