<?xml version="1.0" encoding="utf-8"?>
<!-- Generator: Adobe Illustrator 18.1.1, SVG Export Plug-In . SVG Version: 6.00 Build 0)  -->
<svg version="1.1" id="Layer_1" xmlns="http://www.w3.org/2000/svg" xmlns:xlink="http://www.w3.org/1999/xlink" x="0px" y="0px"
	 viewBox="0 0 310.1 436.1" enable-background="new 0 0 310.1 436.1" xml:space="preserve">
<path fill="#7CA9DA" d="M30.9,204.9c0,0,147-3.3,147-1.3s0.6,170.4,0.6,170.4l-26,31.3l-19.8-22.1l-43.5-25.7l-44.4-32.9l-15.4-25.4
	L30.9,204.9z"/>
<polygon fill="#FFFFFF" points="45.5,305.5 51.5,284.9 50.7,259 62.1,232.9 66.8,256.9 71.4,252 85.5,266.9 86.1,240.9 92.1,240.9 
	98.8,266.9 99.5,306.2 "/>
<path d="M115.6,284.9L113,273v-2.5l-0.9,2.9l-11.2,0.4l0.2-5.3l1.3-2.3l-2.9-5.5l-0.2-6.6v-7.6l0.7-1.4l-2.5-7.6l-0.2-2.3l-0.9-1.8
	v-3.3V228l-0.9-2.1l-0.2-2.3l-1.6,0.8l-2.2-4.1l-0.2-5.1v-4.9v-1.4h-1.3l-0.4,1.8l-0.2,2.1l-0.4,5.7l-0.2,3.5l-2,2.3l-1.3-1.6
	l-1.6,2.1c0,0,0.4,12.9,0.4,13.6c0,0.6-2,1-2,1l-0.4,2.5l2,1.4l-0.2,8.4l-0.4,1l0.9,1.2l0.2,6.8h-2l-8.8-9.6v-4.1l-0.4-1.8l-0.7,2.3
	l-0.7,4.7l-2.2,1.8l-0.4-3.7l0.9-1.8l-0.2-3.9l-0.7-3.5l-0.7-3.1l-0.7,1.4l-0.7,1.8l-2.2-1.8l0.9-2.1l1.8-0.6l-1.1-2.3l-0.2-3.1
	l-1.1,1.2v-2.5v-10.3l-0.2-4.3l-1.1-0.6l-0.9,2.9l-0.9,5.5l-1.3,2.1v2.7l-0.9,1.4l0.4,1.4l-2.5,2.1l-1.1,2.7l-0.4,3.3l-2,0.6
	l-0.4,1.2H52l2.2,1.4l-0.4,2.9l-1.6,0.4l-0.7,1.4l1.3,1.6l-1.1,3.5l-1.1,7l-0.2,6l-1.6,0.6l-0.4,2.3l1.3,1.6c0,0-0.9,10.7-1.3,11.5
	l-7.6,8.4L39.7,312l30.8-0.2l-5.8-0.7v-3.3v-8.2l0.4-3.3l4.3-3.1l5.4,2.7l1.8,2.3l0.2,6l0.6,7.6l1.6,0l-0.2-10.3l0.4-4.7l2.2-2.5
	l1.1,1.4l0.2,16l32.2-0.2l0.4-15l0.9-3.5L115.6,284.9z M58.6,264.8l-2.9,0.4l0.4-3.9l0.2-1.6l0.9-1.4l0.9,1.4l0.4,1.8V264.8z
	 M58.8,251.6l-0.2,4.1l-2.7,0.6l0.2-0.8l0.7-3.5l0.4-2.9l0.9-1.2l0.7,1.4V251.6z M60.4,311.6v-14.2l1.6-2.1l0.9,2.1
	c0,0,0.2,13.3,0.2,14S60.4,311.6,60.4,311.6z M70.9,259.8l1.8-2.1l2,1.4l0.9,2.3l-0.4,1.2l-4.5,0.6L70.9,259.8z M76.3,287.1h-8.1
	l0.2-9.9l1.6-3.1l2-2.3l1.8,1.2l2.2,2.1v2.3l0.2,4.1V287.1z M88.7,250.8V245l1.1-1.8c0,0,2.5,0,2.7,2.3c0.2,2.3,0,5.5,0,5.5
	l-3.8,0.8V250.8z M88.9,260.6l0.2-3.5l0.9-3.5l1.6,1.4l0.9,2.5l0.4,3.3L88.9,260.6z"/>
<path d="M178.2,268.3L103.3,292l0.4,14.5l8.2,0.2c0,0,1.2-10.7,8.9-10.9c8.2-0.3,8.6,11.8,8.6,11.8l7-0.7c0,0,0.6-13.7,12.2-15.8
	c11.5-2,10.8,15,10.8,15l6.4-0.4c0,0,1.4-18.2,11.9-16.8"/>
<rect x="31.9" y="163.2" fill="#FFFFFF" width="239.3" height="39"/>
<polygon fill="#FFFFFF" points="272.3,202.9 177.9,203.5 177.9,378.5 224.9,350.5 253.3,338.5 267.6,312.5 274.6,288.2 275.9,248.2 
	"/>
<polygon fill="#FFFFFF" points="30.9,59.5 31.9,100.2 273.9,100.9 273.7,57.5 241.3,62.9 204.6,58.9 169.3,39.5 152.6,21.9 
	133.6,44.9 104.9,57.2 80.3,61.9 48.3,58.9 31.6,55.5 "/>
<path fill="none" stroke="#BA202B" stroke-width="12" stroke-miterlimit="10" d="M206.2,361.5c12.7-5.2,75-25,70.5-90s-3-214-3-214
	c-79.4,21.8-119.9-35.7-119.9-35.7l0,0c0,0-34.8,55.3-121.3,35.5c0,0,1.5,149-3,214s57.4,86.3,70.4,90.8c0,0,40.5,15.6,53.9,44.5
	C153.8,406.8,169.1,376.7,206.2,361.5z"/>
<polygon fill="#FFFFFF" stroke="#BA202B" stroke-width="8" stroke-miterlimit="10" points="12.6,101.5 290.9,101.5 279.3,164.2 
	25.6,164.2 "/>
<line fill="none" stroke="#BA202B" stroke-width="10" stroke-miterlimit="10" x1="274.6" y1="202.9" x2="34.3" y2="202.9"/>
<path d="M171.8,60.7c-1.9-3.3-4.6-6-7.8-7.8c-2.9-1.6-6.3-2.5-9.7-2.5c-0.3,0-0.6,0-0.9,0c-4.1,0.2-8.5,1.9-11.8,4.6
	c-2.8,2.3-5,5.4-6.2,8.8c-1.3,3.7-1.6,7.8-0.7,11.8l0.7,2.3c2.3,5.2,5.4,8.9,9.4,11.1c1,0.5,3.6,1.5,3.7,1.5
	c1.8,0.5,3.7,0.8,5.8,0.8c1.5,0,3.1-0.1,4.8-0.4l2.2-0.7c7.7-3.3,12.3-9.2,13.1-16.9c0.3-2.6,0-5.6-0.8-8.3
	C173.2,63.4,172.6,62,171.8,60.7z M155.5,52.7l0.1,0c0.4-0.1,1.1-0.1,1.8-0.1c1.2,0,2.5,0.2,3.2,0.4c0.8,0.3,4.5,2.3,4.8,3.1
	c0,0.2,0.2,2,0.2,3.4l0,0.2l-0.5,0.1c-1.7,0.3-3.4,0.6-5.3,1l-0.1,0l-0.1-0.1c-1.9-1.7-3.7-3.1-5.3-4.4l-0.1-0.1l0.1-0.2
	c0.4-1.1,0.8-2.2,1.2-3.2L155.5,52.7z M163.1,76.8c-0.5,2.1-1.2,4.3-2.2,6.7l0,0.1l-3.3,1c-0.3,0.1-0.6,0.2-0.8,0.3l-0.1,0
	c-0.8,0.3-1.6,0.6-2.2,0.6c0,0-0.1,0-0.1,0c-0.1,0-0.5-0.1-2.5-1.7l-0.1-0.1c-0.1-0.1-0.3-0.2-0.4-0.3c-1-0.8-1.8-1.6-2.7-2.3
	l-0.3-0.2l0-0.1c0.3-1.9,0.8-4.3,1.3-6.8l0-0.1l7.8-2.4l0.1,0.1c1.8,1.7,3.5,3.5,5.2,5.2l0.1,0.1L163.1,76.8z M147,80.4
	c-1.4,0.3-2.7,0.5-3.9,0.7l-0.2,0c-0.3,0-0.7,0.1-1,0.1l-0.1,0l-0.1-0.1c-1.4-1.5-2.6-3.1-3.7-4.8l0-0.1l0-0.1
	c0-1.8,0.2-3.7,0.4-5.3c0-0.4,0.1-0.7,0.1-1.1l0-0.1l0.1-0.1c1.3-0.7,2.6-1.3,4.4-2l0.2-0.1l0.1,0.1c1.3,1.4,3.3,3.6,5.3,5.5
	l0.1,0.1l-1.4,7.1L147,80.4z M153.9,52.3l0.3,0.1l-0.1,0.3c-0.3,0.8-0.8,2-1.2,3.3l0,0.1l-0.1,0c-1.7,0.4-4,1.2-5.6,1.7
	c-0.2,0.1-0.3,0.1-0.5,0.2c-0.1,0-0.2,0.1-0.3,0.1l-0.1,0.1l-0.1-0.1c-0.3-0.2-0.8-0.6-1.3-1.1c-0.4-0.3-0.8-0.7-1.1-1l-0.2-0.1
	l0.1-0.2c0.7-1.1,2.3-2.2,4.2-2.9C150,52.1,152.4,51.8,153.9,52.3z M137.3,63.4c0.1-0.3,0.2-0.5,0.3-0.7c0.9-2.3,2.6-4.3,4.5-5.5
	l0.1-0.1l0.1,0.1c0.9,0.5,1.7,1.3,2.6,2l0.1,0.1l-0.1,0.2c-0.9,2.3-1.5,4.7-2,6.4l0,0.1l-1,0.4c-1.3,0.5-2.6,1.1-3.7,1.7l-0.2,0.1
	l-0.1-0.2c-0.5-0.8-0.9-1.4-1.1-2.1c-0.1-0.3-0.1-0.5-0.1-0.8C136.7,64.9,136.9,64.2,137.3,63.4z M140.6,83.9
	c-1.3-1.4-2.5-3.2-3.5-5.4l0.4-0.3c1.2,1.7,2.4,3.1,3.3,4l0.1,0.1l0,0.1c0,0.4,0.1,0.8,0.1,1.3l0.1,0.8L140.6,83.9z M163.9,87
	c-1.8,1.9-5.6,3-8.2,3c-0.8,0-1.5-0.1-2.1-0.2l-0.3-0.1l0.1-0.3c0.3-0.7,0.6-1.6,0.9-2.4l0-0.1l0.1,0c0.3-0.1,0.6-0.1,0.9-0.2
	c1.2-0.3,4.6-1.3,4.9-1.4c0.4-0.2,0.8-0.3,1-0.4l0,0l0,0c0.2,0.1,0.4,0.3,1,0.7c0.2,0.2,0.3,0.3,0.5,0.4c0.2,0.2,0.5,0.3,0.7,0.5
	c0.1,0.1,0.2,0.1,0.3,0.2l0.3,0.2L163.9,87z M170.2,69.1l0,0.1c0,0.2-0.1,0.4-0.1,0.5c-0.1,0.5-0.2,1.1-0.2,1.6
	c-0.1,0.5-0.2,1-0.2,1.5l0,0.1l-0.1,0.1c-1.5,0.7-3.1,1.4-5.3,2.3l-0.1,0.1l-0.1-0.1c-1-0.9-2-1.9-3-2.9c-0.7-0.7-1.5-1.5-2.2-2.2
	l-0.1-0.1l0-0.1c0.2-1.2,0.5-2.4,0.7-3.6c0.3-1.4,0.6-2.6,0.8-3.9l0-0.2l0.2,0c2.1-0.5,4-0.8,5.6-1.1l0.1,0l0.1,0.1
	c0.3,0.4,0.7,0.8,1.1,1.2l0.1,0.1c0.7,0.8,1.4,1.6,2.1,2.5c0.1,0.1,0.2,0.3,0.4,0.5c0.4,0.4,0.6,0.7,0.6,0.9
	C170.5,66.8,170.4,68,170.2,69.1z M172.6,75.5l-0.2,0.5l-0.3-0.4c-0.1-0.2-0.3-0.4-0.4-0.6c-0.3-0.5-0.6-0.9-0.8-1.3
	c-0.1-0.3,0-1.2,0.3-2.3l0-0.1c0.1-0.4,0.1-0.7,0.2-1l0-0.2c0.1-1,0.2-1.9,0.3-2.9l0-0.2l0.3-0.1c0.1,0,0.2-0.1,0.3-0.1l0.2-0.1
	l0.1,0.3C173.5,70.1,173.5,73,172.6,75.5z"/>
<rect x="177.6" y="220.5" fill="#BA202B" width="93.3" height="15.3"/>
<rect x="177.6" y="248.5" fill="#BA202B" width="93.3" height="15.3"/>
<rect x="177.6" y="276.5" fill="#BA202B" width="93.3" height="15.3"/>
<polygon fill="#BA202B" points="193.3,370.2 177.6,370.9 177.6,350.9 223.6,350.5 "/>
<path fill="#BA202B" d="M177.6,201.5"/>
<g>
	<path d="M49.8,193v-17.8h3.3c2.2,0,3.1,0.9,3.1,3.1v3.6c0,1.1-0.5,1.8-1.3,2c0.8,0.2,1.5,0.7,1.5,2v4.2c0,2.1-1.1,3-3.3,3H49.8z
		 M54.4,178.2c0-1-0.4-1.4-1.3-1.4h-1.4v6.3h1.4c0.9,0,1.3-0.3,1.3-1.2V178.2z M54.5,186c0-1-0.3-1.4-1.3-1.4h-1.4v6.8h1.4
		c0.9,0,1.4-0.5,1.4-1.4V186z"/>
	<path d="M64.3,193l-0.5-3h-3.1l-0.5,3h-1.9l2.9-17.8h2.2l2.7,17.8H64.3z M62.4,179.3c-0.4,3.1-0.9,6.1-1.4,9.1h2.7
		C63.2,185.5,62.8,182.4,62.4,179.3z"/>
	<path d="M73.7,193c-0.4-2.7-0.9-5.4-1.5-8.1c-0.2,0-0.3,0-0.5,0h-1v8.1h-1.9v-17.8H72c2.4,0,3.6,0.9,3.6,3.2v3.6
		c0,1.3-0.5,2.2-1.5,2.6c0.7,2.8,1.2,5.7,1.7,8.5H73.7z M73.6,178.6c0-1.3-0.3-1.8-1.7-1.8h-1.2v6.6H72c1.2,0,1.6-0.5,1.6-1.5V178.6
		z"/>
	<path d="M80.1,193v-16.2h-2.3v-1.7h6.5v1.7H82V193H80.1z"/>
	<path d="M86.9,193v-17.8h1.9v16.2h3.7v1.6H86.9z"/>
	<path d="M94.8,178c0-2,1.1-3,3.3-3c2.2,0,3.3,1.1,3.3,3v12.2c0,2-1.1,3-3.3,3c-2.2,0-3.3-1.1-3.3-3V178z M99.4,178
		c0-0.9-0.4-1.4-1.4-1.4c-0.9,0-1.3,0.5-1.3,1.4v12.2c0,0.9,0.5,1.4,1.3,1.4c0.9,0,1.4-0.5,1.4-1.4V178z"/>
	<path d="M112.1,193v-5.4c0-2.6,0-5.1,0.1-7.7l-2.2,13.1h-1.7l-2.2-13.1c0,2.6,0.1,5.1,0.1,7.7v5.4h-1.8v-17.8h2.6l2.2,13.9
		l2.2-13.9h2.7V193H112.1z"/>
	<path d="M117,193v-17.8h5.5v1.7H119v6.3h2.5v1.6H119v6.6h3.7v1.6H117z"/>
	<path d="M134.4,187.7c0-1.1-0.1-1.3-0.6-1.8c-1-1-2-1.7-3.2-3c-0.7-0.7-0.7-1.3-0.7-2.3v-2.7c0-2,1.1-2.9,3.2-2.9
		c2.3,0,3.2,1,3.2,2.9v3.2h-1.8v-3c0-0.9-0.3-1.5-1.3-1.5c-0.9,0-1.3,0.4-1.3,1.3v2.6c0,0.7,0.1,1,0.5,1.4c1,1.1,2.1,1.8,3.2,2.9
		c0.8,0.8,0.9,1.4,0.9,2.8v2.6c0,1.9-0.9,2.9-3.2,2.9c-2.2,0-3.2-1.1-3.2-2.9v-3.8h1.8v3.6c0,0.9,0.3,1.6,1.3,1.6
		c1,0,1.4-0.5,1.4-1.3V187.7z"/>
	<path d="M139.1,178c0-2,1.1-3,3.3-3c2.2,0,3.3,1.1,3.3,3v12.2c0,2-1.1,3-3.3,3c-2.2,0-3.3-1.1-3.3-3V178z M143.7,178
		c0-0.9-0.4-1.4-1.4-1.4c-0.9,0-1.3,0.5-1.3,1.4v12.2c0,0.9,0.5,1.4,1.3,1.4c0.9,0,1.4-0.5,1.4-1.4V178z"/>
	<path d="M153.1,186.5h1.7v3.7c0,2.1-0.9,3.1-3,3.1c-2.2,0-3.3-1-3.3-3V178c0-2.1,1.1-3.1,3.3-3.1c2,0,3,1,3,3v3.2h-1.7V178
		c0-1-0.3-1.4-1.3-1.4c-0.9,0-1.4,0.5-1.4,1.4v12.1c0,1,0.5,1.4,1.4,1.4c0.9,0,1.3-0.5,1.3-1.4V186.5z"/>
	<path d="M162.2,186.5h1.7v3.7c0,2.1-0.9,3.1-3,3.1c-2.2,0-3.3-1-3.3-3V178c0-2.1,1.1-3.1,3.3-3.1c2,0,3,1,3,3v3.2h-1.7V178
		c0-1-0.3-1.4-1.3-1.4c-0.9,0-1.4,0.5-1.4,1.4v12.1c0,1,0.5,1.4,1.4,1.4c0.9,0,1.3-0.5,1.3-1.4V186.5z"/>
	<path d="M166.8,193v-17.8h5.5v1.7h-3.6v6.3h2.5v1.6h-2.5v6.6h3.7v1.6H166.8z"/>
	<path d="M180.1,193c-0.4-2.7-0.9-5.4-1.5-8.1c-0.2,0-0.3,0-0.5,0h-1v8.1h-1.9v-17.8h3.2c2.4,0,3.6,0.9,3.6,3.2v3.6
		c0,1.3-0.5,2.2-1.5,2.6c0.7,2.8,1.2,5.7,1.7,8.5H180.1z M180,178.6c0-1.3-0.3-1.8-1.7-1.8h-1.2v6.6h1.3c1.2,0,1.6-0.5,1.6-1.5
		V178.6z"/>
	<path d="M194.8,193l-0.5-3h-3.1l-0.5,3h-1.9l2.9-17.8h2.2l2.7,17.8H194.8z M192.8,179.3c-0.4,3.1-0.9,6.1-1.4,9.1h2.7
		C193.7,185.5,193.2,182.4,192.8,179.3z"/>
	<path d="M203.7,186.5h1.7v3.7c0,2.1-0.9,3.1-3,3.1c-2.2,0-3.3-1-3.3-3V178c0-2.1,1.1-3.1,3.3-3.1c2,0,3,1,3,3v3.2h-1.7V178
		c0-1-0.3-1.4-1.3-1.4c-0.9,0-1.4,0.5-1.4,1.4v12.1c0,1,0.5,1.4,1.4,1.4c0.9,0,1.3-0.5,1.3-1.4V186.5z"/>
	<path d="M213.6,193l-0.5-3h-3.1l-0.5,3h-1.9l2.9-17.8h2.2l2.7,17.8H213.6z M211.7,179.3c-0.4,3.1-0.9,6.1-1.4,9.1h2.7
		C212.5,185.5,212.1,182.4,211.7,179.3z"/>
	<path d="M218.1,193v-17.8h3.2c2.2,0,3.3,1.1,3.3,3.1V190c0,2-1.1,3-3.3,3H218.1z M222.7,178.2c0-0.9-0.5-1.4-1.4-1.4h-1.3v14.5h1.3
		c0.9,0,1.4-0.5,1.4-1.4V178.2z"/>
	<path d="M227.7,193v-17.8h5.5v1.7h-3.6v6.3h2.5v1.6h-2.5v6.6h3.7v1.6H227.7z"/>
	<path d="M243.8,193v-5.4c0-2.6,0-5.1,0.1-7.7l-2.2,13.1h-1.7l-2.2-13.1c0,2.6,0,5.1,0,7.7v5.4H236v-17.8h2.6l2.2,13.9l2.2-13.9h2.7
		V193H243.8z"/>
	<path d="M250.9,193v-8l-2.9-9.8h2c0.7,2.3,1.7,6.1,2,7.3c0.3-1.3,1.3-5,2-7.3h1.9l-3,9.8v8H250.9z"/>
</g>
<g>
	<path d="M117.7,174l1.9-2.8h1.5l-2.3,2.8H117.7z"/>
</g>
<g>
	<path d="M80.3,131.8c5,1.6,7.5,4.5,7.5,8.8c0,3.4-1.5,6-4.4,8c-1.5,1-3.2,1.7-5.1,2.1c-1.9,0.4-4.4,0.6-7.2,0.6H40.6v-0.9
		c0.8-0.2,1.3-0.4,1.6-0.7s0.5-0.7,0.5-1.3V117c0-0.6-0.2-1-0.5-1.3s-0.8-0.5-1.6-0.7v-0.9h30.1c2.9,0,5.2,0.2,7,0.5
		c1.8,0.4,3.3,1,4.6,1.8c2.6,1.7,3.9,4.2,3.9,7.5C86.3,127.6,84.3,130.3,80.3,131.8z M52.4,128.9h17.1c2.6,0,4.4-0.3,5.4-1
		c1.2-0.7,1.7-1.8,1.7-3.4c0-1.6-0.5-2.7-1.6-3.3c-1.1-0.7-2.9-1-5.5-1H52.4V128.9z M52.4,145.2h16.5c3.1,0,5.3-0.4,6.6-1.1
		c1.5-0.8,2.3-2.1,2.3-4c0-1.8-0.8-3.2-2.3-4c-1.3-0.7-3.5-1.1-6.6-1.1H52.4V145.2z"/>
	<path d="M170.3,117.3l-5.3,8.7l-0.9-0.4c0-0.2,0-0.3,0-0.4c0-0.6-0.6-1.3-1.9-2c-3.9-2.2-8.4-3.4-13.6-3.4c-2.3,0-4.3,0.2-6.1,0.7
		c-1.3,0.4-2.3,0.9-3.1,1.6c-0.8,0.7-1.2,1.5-1.2,2.4c0,1.4,1,2.3,3,2.9c1,0.3,3.3,0.5,6.7,0.8l5.1,0.4c3,0.3,5.5,0.6,7.4,1.1
		c1.9,0.5,3.6,1.1,5,2c1.5,0.9,2.6,2.1,3.5,3.5c0.9,1.4,1.3,3,1.3,4.6c0,2.6-1,4.9-3,7c-1.8,1.8-4.7,3.2-8.5,4.1
		c-2.9,0.7-5.9,1-9.2,1c-5.9,0-11.7-1.2-17.5-3.5c-1.2-0.5-1.9-0.7-2.2-0.7c-0.3,0-0.7,0.2-1.3,0.6l-0.9-0.4l4.8-9.1l0.9,0.4
		c0,0.2,0,0.3,0,0.4c0,0.8,0.5,1.6,1.4,2.3c1.4,1.1,3.6,2,6.6,2.7c3,0.8,5.8,1.1,8.4,1.1c2.9,0,5.4-0.4,7.4-1.2
		c1.1-0.5,2-1.1,2.7-1.8c0.7-0.8,1-1.5,1-2.3c0-1.2-0.8-2.1-2.4-2.6c-1.1-0.4-3.3-0.7-6.7-1l-5-0.4c-3.4-0.3-5.8-0.6-7.1-0.8
		c-1.4-0.3-2.8-0.7-4.2-1.3c-2-0.8-3.5-2-4.7-3.7c-1-1.5-1.5-3.2-1.5-5.1c0-3.1,1.3-5.7,3.9-7.8c3.4-2.7,8.5-4.1,15.3-4.1
		c2.8,0,5.5,0.2,8,0.7c2.5,0.5,5.5,1.4,9.2,2.7c1.3,0.4,2,0.6,2.3,0.6c0.5,0,1-0.2,1.6-0.6L170.3,117.3z"/>
	<path d="M243.9,141.8h-20.2l-3,5.2c-0.4,0.7-0.6,1.3-0.6,1.7c0,0.8,0.7,1.4,2.2,1.7v0.9h-14.7v-0.9c0.9-0.1,1.5-0.4,2-0.8
		c0.5-0.4,1-1.1,1.6-2.1l16.4-28.5c0.5-0.9,0.8-1.6,0.8-2.2c0-0.8-0.6-1.4-1.9-1.8v-0.9h15.8v0.9c-1.3,0.3-1.9,0.8-1.9,1.6
		c0,0.5,0.2,1.1,0.6,1.8l17,28.6c0.7,1.2,1.3,2,1.9,2.5c0.5,0.4,1.3,0.7,2.2,0.9v0.9h-16.4v-0.9c1.4-0.2,2.2-0.8,2.2-1.7
		c0-0.4-0.2-0.9-0.7-1.7L243.9,141.8z M241.1,136.7l-7.2-13.2l-7.3,13.2H241.1z"/>
</g>
<polygon fill="#FBB040" points="194.2,122.3 196.5,129.5 204.1,129.5 198,134 200.3,141.2 194.2,136.7 188,141.2 190.4,134 
	184.2,129.5 191.8,129.5 "/>
<polygon fill="#FBB040" points="110.5,122.3 112.9,129.5 120.5,129.5 114.3,134 116.7,141.2 110.5,136.7 104.3,141.2 106.7,134 
	100.5,129.5 108.1,129.5 "/>
<polygon fill="#FFFFFF" stroke="#BA202B" stroke-width="8" stroke-miterlimit="10" points="26.3,309.2 278.3,309.2 257.6,350.5 
	49.6,350.5 "/>
<g>
	<path d="M111,331.1v1.8h5.7c0.2,0,0.3,0,0.4-0.1c0.1-0.1,0.2-0.2,0.2-0.3h0.2v2.2h-0.2c0-0.2-0.1-0.3-0.2-0.3
		c-0.1-0.1-0.2-0.1-0.4-0.1h-8.4v-0.2c0.2,0,0.3-0.1,0.4-0.2c0.1-0.1,0.1-0.2,0.1-0.3v-6.1c0-0.1,0-0.2-0.1-0.3
		c-0.1-0.1-0.2-0.1-0.4-0.2v-0.2h8.2c0.2,0,0.3,0,0.4-0.1s0.2-0.2,0.2-0.3h0.2v2.2h-0.2c-0.1-0.2-0.1-0.3-0.2-0.3
		c-0.1-0.1-0.2-0.1-0.4-0.1H111v1.6h3.4c0.2,0,0.3,0,0.4-0.1c0.1-0.1,0.2-0.2,0.2-0.3h0.2v2.2h-0.2c-0.1-0.2-0.1-0.3-0.2-0.3
		s-0.2-0.1-0.4-0.1H111z"/>
	<path d="M128.8,327.4l-1.1,1.7l-0.2-0.1c0-0.1-0.1-0.3-0.2-0.3c-0.3-0.2-0.8-0.4-1.4-0.6c-0.6-0.1-1.2-0.2-1.8-0.2
		c-0.5,0-1,0.1-1.4,0.2c-0.6,0.2-0.9,0.4-0.9,0.8c0,0.2,0.1,0.4,0.4,0.5c0.3,0.1,0.8,0.2,1.6,0.2l1.3,0.1c1.1,0.1,2,0.2,2.5,0.5
		c0.3,0.2,0.6,0.4,0.8,0.6c0.3,0.3,0.4,0.7,0.4,1.1c0,0.8-0.4,1.4-1.2,1.8c-0.8,0.4-1.9,0.6-3.2,0.6c-1.4,0-2.7-0.2-4-0.7
		c-0.1,0-0.2,0-0.2,0c-0.1,0-0.2,0.1-0.3,0.2l-0.2-0.1l0.9-1.8l0.2,0.1c0,0,0,0,0,0.1c0,0.1,0.1,0.2,0.2,0.3
		c0.3,0.2,0.7,0.4,1.4,0.5c0.7,0.1,1.3,0.2,2,0.2c0.6,0,1.1-0.1,1.5-0.2c0.6-0.2,0.8-0.4,0.8-0.7c0-0.3-0.2-0.5-0.6-0.6
		c-0.3-0.1-0.7-0.1-1.4-0.2l-1.3-0.1c-0.7,0-1.2-0.1-1.6-0.2s-0.7-0.2-0.9-0.3c-0.3-0.2-0.6-0.4-0.8-0.7s-0.3-0.6-0.3-1
		c0-0.8,0.4-1.4,1.3-1.9c0.8-0.4,1.7-0.6,2.9-0.6c0.6,0,1.2,0.1,1.7,0.2s1.2,0.3,1.9,0.6c0.2,0.1,0.4,0.1,0.5,0.1
		c0.1,0,0.2,0,0.3-0.1L128.8,327.4z"/>
	<path d="M136.6,328.1v5.4c0,0.1,0,0.2,0.1,0.3c0.1,0.1,0.2,0.1,0.4,0.2v0.2h-3.2v-0.2c0.2,0,0.3-0.1,0.4-0.2
		c0.1-0.1,0.1-0.2,0.1-0.3v-5.4h-2.7c-0.2,0-0.3,0-0.4,0.1c-0.1,0.1-0.2,0.2-0.2,0.3h-0.2v-2.2h0.2c0,0.2,0.1,0.3,0.2,0.3
		s0.2,0.1,0.4,0.1h7.5c0.2,0,0.3,0,0.4-0.1c0.1-0.1,0.2-0.2,0.2-0.3h0.2v2.2h-0.2c-0.1-0.2-0.1-0.3-0.2-0.3s-0.2-0.1-0.4-0.1H136.6z
		"/>
	<path d="M143.8,332.2c0.4,0,0.7,0.1,0.9,0.3c0.3,0.2,0.4,0.5,0.4,0.8c0,0.3-0.1,0.6-0.4,0.8c-0.3,0.2-0.6,0.3-0.9,0.3
		c-0.4,0-0.7-0.1-0.9-0.3c-0.3-0.2-0.4-0.5-0.4-0.8c0-0.3,0.1-0.6,0.4-0.8C143.2,332.3,143.5,332.2,143.8,332.2z"/>
	<path d="M156.3,332.6h6.7c0.2,0,0.3,0,0.4-0.1c0.1-0.1,0.2-0.2,0.2-0.3h0.3v2.5h-0.3c-0.1-0.2-0.1-0.3-0.2-0.3
		c-0.1-0.1-0.2-0.1-0.4-0.1h-8.6c-0.3,0-0.5,0-0.6,0.1c-0.1,0.1-0.2,0.2-0.2,0.3h-0.3c0-0.2,0-0.4,0-0.4c0-0.6,0.1-1,0.2-1.4
		c0.3-0.7,0.9-1.4,1.8-1.9c0.4-0.3,1.2-0.6,2.2-1l1.4-0.5c0.6-0.2,1.1-0.5,1.4-0.8c0.3-0.3,0.4-0.6,0.4-0.9c0-0.4-0.2-0.7-0.5-0.9
		c-0.3-0.2-0.8-0.3-1.5-0.3c-0.8,0-1.5,0.2-2.2,0.5c-0.7,0.3-1,0.6-1,0.9c0,0.1,0,0.2,0.1,0.4l-0.2,0.2l-2.1-1.9l0.2-0.1
		c0.2,0.1,0.4,0.1,0.5,0.1c0.1,0,0.2,0,0.2,0c0.1,0,0.2-0.1,0.4-0.3c1.2-0.9,2.6-1.3,4.4-1.3c1.2,0,2.2,0.3,3,0.8
		c0.8,0.5,1.1,1.2,1.1,2.1c0,0.8-0.4,1.5-1.1,2.1c-0.5,0.4-1.1,0.7-1.9,1l-1.2,0.5c-0.1,0.1-0.4,0.2-0.9,0.3c-0.6,0.2-1,0.3-1.2,0.5
		C156.7,332.2,156.5,332.4,156.3,332.6z"/>
	<path d="M171.6,325c1.5,0,2.7,0.4,3.6,1.2c1.1,0.9,1.6,2.1,1.6,3.6c0,0.5-0.1,1-0.2,1.5c-0.2,0.5-0.4,0.9-0.7,1.3
		c-0.5,0.6-1.1,1.1-1.9,1.5c-0.7,0.3-1.5,0.4-2.4,0.4c-1.5,0-2.7-0.4-3.6-1.2c-0.5-0.4-0.8-0.8-1.1-1.3c-0.4-0.7-0.6-1.5-0.6-2.3
		c0-1.1,0.3-2,0.9-2.8c0.5-0.6,1.1-1.1,1.9-1.5C169.9,325.1,170.7,325,171.6,325z M171.6,326.5c-0.9,0-1.5,0.3-2,0.9
		c-0.5,0.6-0.7,1.3-0.7,2.2s0.2,1.6,0.7,2.2c0.5,0.6,1.2,0.9,2.1,0.9c0.9,0,1.6-0.3,2.1-0.9c0.5-0.6,0.7-1.3,0.7-2.1
		c0-0.9-0.2-1.6-0.7-2.2C173.2,326.8,172.5,326.5,171.6,326.5z"/>
	<path d="M180.7,328.4V326h0.3c0.1,0.2,0.1,0.3,0.2,0.3s0.1,0.1,0.3,0.1c0.1,0,0.1,0,0.2,0l0.7-0.1v-0.4c0-0.1,0-0.2-0.1-0.3
		c-0.1-0.1-0.2-0.1-0.4-0.2v-0.2h3.4v0.2c-0.2,0-0.3,0.1-0.4,0.2c-0.1,0.1-0.1,0.2-0.1,0.3v7.7c0,0.1,0,0.2,0.1,0.3
		c0.1,0.1,0.2,0.1,0.4,0.2v0.2h-3.4V334c0.2,0,0.3-0.1,0.4-0.2c0.1-0.1,0.1-0.2,0.1-0.3v-5.8l-0.8,0.2c-0.2,0-0.3,0.1-0.4,0.2
		c-0.1,0.1-0.1,0.2-0.2,0.3H180.7z"/>
	<path d="M199.9,325.7l-1.4,2.2l-0.2-0.1c0-0.1,0-0.2,0-0.3c0-0.2-0.2-0.4-0.5-0.5c-0.3-0.2-0.7-0.3-1.1-0.4s-0.9-0.1-1.3-0.1
		c-0.9,0-1.7,0.2-2.3,0.6c-0.4,0.3-0.7,0.6-0.9,0.9s-0.3,0.8-0.4,1.4c0.5-0.4,1.1-0.7,1.7-0.9s1.2-0.3,1.9-0.3c1.2,0,2.2,0.2,3,0.7
		c0.5,0.3,0.8,0.6,1.1,1c0.3,0.4,0.4,0.8,0.4,1.3c0,1-0.5,1.7-1.4,2.3c-0.9,0.6-2.1,0.8-3.6,0.8c-1.6,0-2.8-0.3-3.7-1
		c-0.6-0.4-1-1-1.3-1.6c-0.3-0.6-0.4-1.3-0.4-2c0-1.4,0.5-2.6,1.6-3.4c1.1-0.9,2.5-1.4,4.3-1.4c0.6,0,1.2,0,1.7,0.1
		c0.5,0.1,1.1,0.3,1.7,0.5c0.2,0.1,0.4,0.1,0.5,0.1c0.1,0,0.2,0,0.3-0.1c0.1,0,0.1-0.1,0.2-0.1L199.9,325.7z M194.9,329.7
		c-0.8,0-1.5,0.2-2,0.5c-0.4,0.3-0.6,0.6-0.6,1.1c0,0.4,0.2,0.8,0.6,1.1c0.5,0.3,1.2,0.5,2,0.5c0.8,0,1.5-0.2,2-0.5
		c0.4-0.3,0.6-0.6,0.6-1.1c0-0.4-0.2-0.8-0.6-1.1C196.4,329.9,195.8,329.8,194.9,329.7z"/>
</g>
<line fill="none" stroke="#000000" stroke-width="2" stroke-miterlimit="10" x1="48.3" y1="330.2" x2="100.3" y2="330.2"/>
<line fill="none" stroke="#000000" stroke-width="2" stroke-miterlimit="10" x1="205.9" y1="330.9" x2="257.9" y2="330.9"/>
</svg>
