<?xml version="1.0" standalone="no"?>
<!DOCTYPE svg PUBLIC "-//W3C//DTD SVG 20010904//EN"
 "http://www.w3.org/TR/2001/REC-SVG-20010904/DTD/svg10.dtd">
<svg version="1.0" xmlns="http://www.w3.org/2000/svg"
 width="5000.000000pt" height="5000.000000pt" viewBox="0 0 5000.000000 5000.000000"
 preserveAspectRatio="xMidYMid meet">
<g transform="translate(0.000000,5000.000000) scale(0.100000,-0.100000)"
fill="#fff" stroke="none">
<path d="M13234 43799 c-374 -27 -779 -181 -1087 -413 -526 -396 -854 -1000
-916 -1686 -8 -79 -11 -2328 -11 -7097 l0 -6981 -131 -129 c-957 -938 -1569
-2096 -1749 -3304 -41 -278 -51 -435 -57 -879 -5 -439 9 -1246 27 -1550 30
-496 86 -918 170 -1283 256 -1107 814 -1999 1648 -2630 231 -175 579 -384 829
-496 l120 -55 82 -165 c1290 -2595 3822 -5216 7516 -7781 1537 -1067 3453
-2214 4983 -2983 l342 -172 343 172 c728 366 1618 859 2462 1363 4006 2395
7112 5033 8948 7601 425 596 785 1190 1089 1802 56 114 89 169 103 174 11 3
83 36 160 74 921 446 1612 1134 2046 2034 317 657 479 1365 539 2345 18 304
32 1111 27 1550 -6 444 -16 601 -57 879 -116 780 -419 1559 -875 2246 -253
383 -544 735 -874 1058 l-131 129 -3 7056 -3 7057 -21 125 c-53 315 -152 594
-296 841 -378 647 -1002 1048 -1713 1099 -169 12 -23341 11 -23510 -1z m5735
-5833 c269 -31 558 -85 791 -147 1431 -383 2661 -1357 3450 -2731 40 -71 77
-128 82 -128 5 0 75 20 156 45 343 107 688 176 1072 217 79 8 257 13 480 13
223 0 401 -5 480 -13 384 -41 729 -110 1072 -217 81 -25 151 -45 156 -45 5 0
42 57 82 128 901 1569 2375 2609 4040 2851 274 40 377 46 765 45 417 0 567
-12 908 -74 1339 -242 2563 -1017 3432 -2175 226 -301 423 -623 600 -980 665
-1341 849 -2833 549 -4465 -158 -860 -441 -1738 -825 -2562 -38 -82 -69 -150
-69 -153 0 -3 37 -23 83 -46 618 -311 1286 -806 1725 -1279 594 -641 972
-1349 1121 -2105 66 -330 66 -340 66 -1220 -1 -800 -7 -1015 -41 -1385 -56
-616 -172 -1065 -384 -1495 -286 -582 -722 -1008 -1323 -1295 -668 -319 -1453
-457 -2907 -510 -249 -9 -1520 -29 -1902 -30 -135 0 -138 -1 -142 -22 -148
-701 -398 -1199 -811 -1614 -213 -214 -406 -359 -673 -505 -666 -363 -1490
-520 -3032 -579 -1060 -40 -4859 -40 -5935 0 -1286 48 -2045 163 -2665 405
-225 87 -532 254 -711 387 -577 427 -944 1014 -1119 1792 -16 70 -30 130 -32
131 -2 2 -403 8 -893 14 -922 12 -1238 20 -1680 46 -1147 68 -1841 216 -2440
519 -570 290 -979 700 -1255 1261 -212 430 -328 879 -384 1495 -34 371 -41
585 -41 1385 0 880 1 890 66 1220 189 956 745 1842 1614 2570 344 288 816 601
1220 808 39 20 76 40 83 45 11 7 -2 42 -56 158 -479 1028 -800 2137 -916 3174
-139 1233 14 2389 459 3465 84 204 269 579 375 760 741 1265 1840 2177 3145
2609 387 129 791 208 1275 250 113 10 762 -4 889 -18z"/>
<path d="M18140 36479 c-1143 -94 -2188 -709 -2923 -1722 -437 -601 -737
-1336 -866 -2117 -55 -332 -66 -478 -65 -870 0 -451 27 -748 110 -1205 231
-1273 805 -2619 1516 -3556 68 -89 129 -170 136 -180 13 -16 9 -19 -40 -33
-367 -101 -647 -192 -919 -299 -1524 -598 -2544 -1595 -2739 -2679 -39 -214
-43 -341 -37 -983 10 -912 31 -1239 107 -1616 73 -363 194 -620 387 -820 261
-270 625 -428 1222 -528 568 -96 1263 -135 2616 -148 l700 -6 -4 493 c-3 525
5 745 40 985 127 891 570 1735 1284 2450 423 425 963 821 1517 1114 62 33 121
66 131 74 18 12 15 22 -61 188 -630 1370 -967 2858 -939 4144 21 967 224 1853
621 2715 429 931 1123 1787 1914 2359 39 29 72 58 72 64 0 19 -176 299 -268
428 -650 911 -1575 1522 -2572 1698 -288 51 -677 72 -940 50z"/>
<path d="M31360 36484 c-370 -31 -630 -82 -933 -180 -799 -261 -1522 -803
-2057 -1542 -99 -137 -290 -439 -290 -459 0 -6 33 -35 73 -64 382 -277 792
-671 1113 -1069 305 -378 586 -831 794 -1280 524 -1127 721 -2346 589 -3640
-108 -1071 -438 -2242 -919 -3269 -74 -156 -84 -131 88 -222 332 -175 712
-425 1012 -663 963 -765 1574 -1717 1764 -2749 56 -301 61 -384 61 -1031 l0
-599 700 6 c1353 13 2048 52 2616 148 348 58 592 130 814 238 174 86 288 166
404 286 308 319 436 757 482 1655 7 129 12 532 13 895 1 716 -1 747 -59 990
-248 1042 -1249 1987 -2714 2562 -272 107 -552 198 -919 299 -49 14 -53 17
-40 33 7 10 68 91 136 180 736 970 1316 2358 1536 3676 102 606 122 1182 60
1710 -114 981 -490 1877 -1096 2615 -133 162 -409 439 -569 571 -605 499
-1270 789 -2029 884 -118 15 -532 27 -630 19z"/>
<path d="M24790 33794 c-393 -34 -629 -79 -930 -176 -821 -265 -1548 -809
-2095 -1568 -498 -691 -813 -1533 -909 -2425 -48 -445 -42 -882 20 -1375 69
-550 189 -1067 384 -1650 302 -906 716 -1711 1226 -2387 74 -98 119 -165 111
-168 -6 -2 -100 -29 -207 -59 -1865 -526 -3179 -1590 -3481 -2820 -62 -256
-64 -286 -63 -1006 2 -827 20 -1220 74 -1571 170 -1109 716 -1483 2355 -1613
561 -45 941 -55 2407 -66 1967 -15 3959 2 4658 40 1882 102 2501 437 2709
1465 79 395 103 790 105 1745 1 721 -1 750 -63 1006 -146 593 -515 1139 -1105
1633 -602 505 -1458 931 -2390 1191 -99 28 -187 53 -193 55 -8 3 37 70 111
168 512 679 927 1487 1232 2402 366 1102 499 2126 394 3047 -167 1456 -914
2739 -2030 3483 -530 353 -1076 556 -1695 630 -124 15 -530 27 -625 19z
m-3210 -13520 l0 -2107 -112 7 c-520 32 -995 116 -1185 208 -62 31 -68 37 -94
93 -16 33 -39 116 -53 185 -59 291 -78 658 -80 1480 -1 683 -3 663 60 848 136
407 536 843 1084 1183 103 64 362 209 372 209 5 0 8 -948 8 -2106z m6939 2059
c364 -198 639 -393 874 -623 292 -284 459 -557 534 -872 16 -66 18 -134 17
-698 -2 -822 -21 -1189 -80 -1480 -14 -69 -37 -152 -53 -185 -26 -56 -32 -62
-94 -93 -190 -92 -665 -176 -1184 -208 l-113 -7 0 2107 c0 1158 3 2106 6 2106
4 0 46 -21 93 -47z m-5344 -361 c313 -183 669 -330 1003 -412 l132 -33 0
-1710 0 -1710 -67 6 c-38 4 -344 7 -680 7 l-613 0 0 1995 0 1996 58 -38 c31
-20 107 -66 167 -101z m3872 -3848 c-1 -1 -307 -4 -680 -6 l-677 -3 0 1706 0
1706 133 33 c385 95 813 282 1157 505 l65 43 3 -1991 c1 -1095 1 -1992 -1
-1993z"/>
</g>
</svg>
